<?xml version="1.0" standalone="no"?>
<!DOCTYPE svg PUBLIC "-//W3C//DTD SVG 20010904//EN"
 "http://www.w3.org/TR/2001/REC-SVG-20010904/DTD/svg10.dtd">
<svg version="1.0" xmlns="http://www.w3.org/2000/svg"
 width="1280.000000pt" height="853.000000pt" viewBox="0 0 1280.000000 853.000000"
 preserveAspectRatio="xMidYMid meet">

<g transform="translate(0.000000,853.000000) scale(0.100000,-0.100000)"
fill="#000000" stroke="none">
<path d="M0 7970 c0 -491 2 -560 15 -560 11 0 15 11 15 40 0 22 5 40 10 40 6
0 10 33 10 80 0 64 3 80 15 80 12 0 15 16 15 80 0 64 3 80 15 80 11 0 15 11
15 40 0 22 5 40 10 40 6 0 10 18 10 40 0 22 4 40 9 40 5 0 11 22 13 50 4 39
11 54 33 71 25 21 27 26 23 82 -4 49 -1 61 14 70 21 13 24 43 6 50 -8 2 -9 8
-4 13 5 5 11 4 13 -3 3 -7 11 -13 19 -13 10 0 14 12 14 40 0 30 7 47 25 66 14
14 25 31 25 39 0 9 10 15 25 15 23 0 25 4 25 40 l0 40 -185 0 -185 0 0 -560z"/>
<path d="M10424 8473 c3 -32 10 -152 16 -268 6 -115 15 -284 19 -375 5 -91 9
-174 9 -185 2 -97 23 -477 28 -503 7 -37 -11 -89 -35 -101 -9 -5 -48 -14 -87
-21 -80 -13 -88 -21 -99 -102 -3 -25 -14 -56 -25 -68 -20 -23 1 -23 -326 -4
-92 5 -105 3 -157 -20 -79 -35 -92 -62 -89 -191 1 -82 -2 -107 -19 -141 -22
-46 -81 -114 -99 -114 -8 0 -9 -10 -5 -30 4 -18 2 -30 -3 -30 -23 0 -42 13
-42 29 0 16 -132 151 -148 151 -5 0 -31 -7 -58 -15 -41 -13 -54 -23 -76 -61
-16 -25 -28 -54 -28 -65 0 -14 -10 -25 -30 -32 -23 -9 -31 -19 -36 -47 -6 -41
-8 -45 -32 -85 -10 -16 -28 -31 -40 -33 -11 -2 -24 -12 -27 -22 -7 -21 -64
-60 -88 -60 -9 0 -22 10 -28 23 -7 12 -17 25 -23 30 -7 5 -2 15 17 30 27 23
35 51 17 62 -17 11 -12 63 8 68 14 4 13 5 -4 6 -11 0 -29 10 -40 20 -98 98
-145 151 -133 151 11 1 11 3 -2 13 -9 7 -15 17 -13 22 3 11 -80 75 -97 75 -9
0 -58 28 -69 40 -3 3 -14 10 -25 17 -11 6 -19 17 -17 23 1 7 -5 18 -15 26 -25
19 -38 17 -22 -3 12 -14 12 -16 -1 -11 -10 3 -14 17 -13 43 1 20 0 35 -3 32
-6 -6 -54 37 -54 48 0 4 -8 14 -17 21 -17 12 -17 14 -1 41 9 15 19 49 23 76 6
40 5 47 -9 47 -12 0 -15 -6 -11 -22 2 -13 -2 -36 -10 -53 l-15 -30 6 33 c7 40
-1 41 -21 2 -19 -37 -29 -37 -61 -2 -17 17 -24 21 -20 10 3 -10 2 -18 -2 -18
-13 0 -41 38 -34 46 4 4 0 5 -8 2 -9 -3 -27 3 -40 15 l-25 20 38 -6 c33 -5 37
-4 27 8 -7 8 -23 15 -36 15 -12 0 -30 8 -40 17 -13 13 -19 14 -22 5 -2 -7 -8
-10 -12 -7 -5 3 -7 12 -4 20 5 12 -42 46 -61 45 -3 0 -22 7 -42 15 -51 22 -33
30 23 11 58 -19 59 -20 45 -3 -6 8 -35 22 -66 32 -30 11 -55 24 -55 30 0 26
110 63 198 66 33 2 32 2 -13 9 -27 3 -61 5 -75 3 -97 -13 -190 -15 -190 -4 0
6 -7 11 -16 11 -11 0 -13 6 -9 19 3 11 1 22 -5 26 -7 4 -11 26 -9 49 5 97 3
101 -56 137 -65 39 -123 122 -149 212 -17 59 -43 77 -53 37 -4 -15 -14 -20
-42 -21 -20 -1 -40 -1 -45 0 -15 3 -36 -21 -36 -41 0 -32 -29 -78 -50 -78 -26
0 -69 20 -104 47 -15 13 -59 38 -97 55 -72 32 -82 47 -53 79 22 25 11 47 -31
65 -32 13 -45 13 -108 0 -40 -8 -92 -17 -117 -21 -25 -3 -64 -11 -87 -16 -29
-8 -46 -8 -60 0 -10 6 -13 11 -6 11 7 0 10 7 7 15 -4 8 1 17 10 21 9 3 16 15
16 26 0 17 -4 19 -27 13 -47 -11 -78 -30 -78 -45 0 -35 -90 -99 -165 -118 -64
-16 -146 -30 -213 -37 -72 -7 -101 -18 -297 -116 -173 -85 -290 -167 -362
-254 -26 -31 -76 -79 -110 -107 -92 -73 -288 -250 -288 -260 0 -4 -6 -8 -12
-8 -20 0 -60 -48 -52 -61 4 -7 3 -9 -4 -5 -11 7 -62 -52 -62 -72 0 -6 -18 -48
-40 -94 -23 -46 -62 -148 -87 -228 -43 -136 -93 -240 -114 -240 -5 0 -9 -5 -9
-11 0 -6 -6 -17 -14 -25 -8 -7 -22 -35 -32 -61 -9 -27 -30 -76 -45 -111 -16
-34 -29 -66 -29 -71 0 -5 -13 -19 -30 -31 -22 -16 -28 -17 -24 -6 4 10 1 16
-8 16 -8 0 -29 16 -47 35 -27 30 -38 35 -76 35 -30 0 -68 11 -118 35 -41 19
-79 35 -86 35 -28 0 -129 -54 -167 -90 -103 -94 -155 -88 -245 30 l-26 35
-102 -18 c-103 -18 -214 -60 -239 -90 -10 -11 -23 -14 -43 -10 -19 4 -29 1
-29 -7 0 -14 -41 -7 -107 17 -49 18 -147 14 -278 -11 -120 -23 -152 -21 -233
19 -45 22 -82 33 -99 31 -82 -12 -114 -21 -178 -51 -38 -18 -81 -36 -95 -40
-33 -10 -141 -65 -162 -83 -9 -8 -25 -11 -36 -8 -11 4 -47 -2 -79 -12 -32 -11
-71 -22 -88 -26 l-30 -7 25 21 c21 16 22 20 7 20 -10 0 -33 -6 -52 -14 -28
-12 -33 -12 -29 -1 8 21 -35 6 -49 -16 -7 -11 -16 -19 -20 -19 -5 0 -22 -10
-39 -21 -52 -37 -103 -25 -166 38 -19 18 -38 33 -42 33 -5 0 -23 -17 -42 -39
-44 -51 -86 -71 -148 -71 -43 0 -55 4 -75 28 -13 15 -25 31 -25 36 0 5 -8 15
-17 21 -19 14 -41 7 -78 -25 -32 -27 -58 -31 -274 -36 -186 -4 -205 -3 -217
13 -7 10 -14 24 -14 30 -1 34 -63 151 -88 165 -22 13 -79 17 -294 23 -263 7
-269 7 -310 -15 -48 -25 -98 -77 -98 -102 0 -11 -8 -18 -20 -18 -17 0 -20 7
-20 40 0 36 -2 40 -25 40 l-25 0 0 -2945 0 -2945 669 0 c591 0 670 2 681 15
14 16 65 12 85 -6 14 -13 162 -11 184 3 15 9 25 9 46 0 32 -15 375 -17 375 -3
0 6 -10 26 -21 46 -13 21 -19 46 -17 60 3 14 -1 30 -9 36 -7 7 -11 20 -8 30 5
14 1 19 -15 19 -12 0 -24 9 -30 24 -5 13 -15 26 -22 29 -9 3 -8 9 7 21 11 8
16 16 12 16 -12 0 35 80 47 80 6 0 24 -7 40 -15 19 -10 41 -13 59 -9 22 4 33
1 48 -15 11 -12 24 -21 28 -21 5 0 16 -12 26 -26 12 -18 13 -29 6 -38 -15 -18
-3 -26 37 -26 24 0 49 -11 86 -39 89 -69 108 -93 100 -125 -5 -21 -9 -23 -34
-16 -28 8 -40 -2 -40 -31 0 -5 1366 -9 3461 -9 l3461 0 -7 23 c-28 90 -83 334
-105 472 -29 174 -42 258 -50 315 -5 36 -16 101 -24 145 -8 44 -19 116 -26
160 -6 44 -18 107 -25 140 -7 33 -17 88 -20 122 -8 71 -21 88 -56 74 -49 -21
-68 -47 -78 -107 -25 -141 -40 -211 -50 -237 -6 -16 -11 -43 -11 -61 l0 -32
-52 7 c-50 6 -78 2 -50 -8 6 -3 12 -11 12 -19 0 -20 -93 -19 -110 1 -7 8 -19
15 -28 15 -17 0 -102 82 -102 99 0 6 -4 11 -9 11 -5 0 -13 9 -16 20 -4 11 -11
18 -16 15 -5 -4 -9 -1 -9 4 0 6 -6 11 -14 11 -8 0 -16 3 -18 8 -3 8 -96 72
-104 72 -5 0 -11 5 -65 50 -20 16 -44 30 -52 30 -8 0 -17 3 -19 8 -3 7 -67 39
-123 62 -17 7 -67 12 -112 11 -46 -1 -83 2 -83 6 0 5 -17 17 -37 28 -21 11
-59 33 -86 48 -26 16 -73 35 -105 42 -59 13 -123 36 -132 46 -3 4 -24 16 -47
28 -24 12 -43 26 -43 31 0 6 -7 10 -15 10 -8 0 -15 4 -15 9 0 6 -18 20 -40 32
-22 13 -40 26 -40 31 0 4 -6 8 -14 8 -16 0 -31 34 -21 50 3 5 17 10 29 10 13
0 29 6 35 14 16 19 72 28 198 31 77 1 107 5 114 16 13 21 11 39 -6 39 -8 0
-15 7 -15 16 0 22 -52 63 -129 102 -36 18 -71 40 -77 48 -6 8 -16 14 -22 14
-13 0 -25 31 -15 41 10 10 153 -17 167 -31 5 -5 16 -10 24 -10 8 0 58 -20 110
-45 112 -53 186 -120 197 -177 8 -41 35 -58 125 -78 30 -7 89 -29 130 -50 86
-43 143 -63 250 -85 41 -9 93 -20 115 -25 84 -19 383 -39 473 -31 14 1 13 48
-2 126 -6 31 -10 68 -26 240 -15 153 -39 312 -60 399 -12 47 -20 114 -20 163
0 60 -3 83 -12 83 -21 0 -34 -13 -52 -52 -10 -20 -58 -83 -107 -140 -55 -64
-89 -112 -89 -126 0 -21 2 -22 68 -16 l67 6 24 -42 c32 -57 40 -162 17 -220
-9 -22 -16 -54 -16 -71 0 -49 -18 -59 -112 -59 -46 -1 -117 -5 -158 -10 -100
-12 -525 22 -547 43 -3 4 3 17 15 30 12 13 22 27 22 33 0 18 72 99 107 121 20
12 39 25 42 30 3 5 26 24 51 43 93 72 330 335 372 414 6 10 26 39 46 65 36 47
122 221 122 247 0 8 4 22 9 32 14 26 30 91 41 161 7 49 6 88 -6 158 -17 109
-19 115 -58 172 -54 80 -33 188 40 201 26 5 29 9 28 43 -1 20 3 34 8 31 11 -7
2 147 -9 155 -18 12 -35 72 -30 99 3 16 0 41 -8 56 -10 19 -11 34 -5 52 6 14
10 42 10 62 0 21 4 52 9 70 8 25 7 32 -5 32 -8 0 -14 10 -14 26 0 15 -9 58
-21 96 -11 38 -24 101 -29 141 -5 40 -12 81 -15 92 -5 18 -1 20 37 22 23 2 48
9 56 17 12 12 11 16 -7 25 -26 15 -27 31 -2 31 30 0 82 49 103 98 16 36 18 56
13 118 -5 53 -4 74 4 74 6 0 16 -12 21 -26 6 -14 17 -32 25 -40 13 -14 15 -12
15 18 0 18 6 67 14 108 8 41 13 114 12 163 -1 72 1 84 12 70 16 -22 15 -57 -2
-168 -17 -107 -20 -229 -6 -220 6 3 10 0 10 -7 0 -19 47 -38 92 -38 30 0 41 5
48 23 6 12 15 29 20 37 6 8 17 32 25 52 18 46 52 70 101 71 29 1 41 -5 60 -28
13 -17 24 -34 24 -39 0 -5 9 -29 20 -52 22 -45 60 -68 102 -62 22 3 23 7 23
84 1 90 19 133 58 136 72 4 136 -18 162 -58 15 -23 16 -36 8 -81 -8 -46 -7
-55 8 -69 10 -9 21 -25 24 -35 4 -11 13 -19 21 -19 8 0 14 -4 14 -9 0 -5 9
-13 20 -16 11 -4 32 -17 45 -31 13 -13 26 -24 29 -24 8 0 66 61 66 71 0 5 14
9 30 9 17 0 30 4 30 9 0 18 34 21 59 5 21 -14 51 -17 175 -17 133 1 152 -1
163 -17 29 -42 73 -25 73 28 0 11 6 25 14 31 8 7 30 44 49 84 46 94 127 181
184 196 23 7 53 9 67 5 29 -7 177 -157 201 -203 22 -44 72 -489 59 -527 -4
-11 -23 -39 -43 -64 -69 -85 -65 -76 -43 -112 29 -49 34 -100 12 -140 -18 -32
-18 -34 5 -78 69 -137 87 -182 76 -193 -6 -6 -11 -18 -11 -26 0 -8 -6 -22 -13
-30 -7 -9 -19 -33 -26 -54 -12 -37 -12 -40 12 -65 23 -25 25 -32 19 -87 -7
-57 -9 -61 -44 -78 -47 -21 -48 -44 -5 -62 46 -19 53 -31 66 -99 15 -79 14
-86 -7 -86 -25 0 -42 -20 -42 -50 0 -20 10 -30 48 -50 39 -21 47 -30 50 -58 2
-20 -4 -42 -17 -61 -12 -16 -21 -33 -21 -38 0 -5 -13 -14 -30 -20 -33 -12 -39
-37 -14 -51 24 -14 11 -70 -26 -109 -17 -18 -30 -38 -30 -46 0 -17 42 -37 76
-37 14 0 51 -13 82 -29 73 -38 92 -45 179 -70 110 -32 254 -103 340 -168 169
-125 426 -421 540 -620 34 -59 85 -142 113 -183 28 -41 62 -93 77 -115 24 -37
167 -224 244 -320 18 -22 59 -62 92 -90 38 -31 67 -66 79 -93 18 -40 19 -53 9
-165 -6 -67 -13 -149 -15 -182 -2 -33 -10 -130 -17 -216 l-13 -156 35 -94 34
-94 3 803 c1 442 1 1162 0 1600 l-3 797 -24 0 c-14 0 -31 10 -42 25 -18 25
-39 140 -43 230 0 25 -5 50 -9 57 -4 6 -3 14 3 18 20 12 9 45 -26 85 -35 38
-36 42 -26 80 5 23 6 40 1 40 -5 0 -9 11 -9 25 0 14 5 25 10 25 7 0 10 32 8
82 -1 61 -7 91 -21 116 -23 38 -19 76 13 147 25 55 22 97 -11 165 -12 25 -27
79 -33 120 -6 41 -20 92 -30 113 -14 29 -17 50 -12 90 3 29 1 69 -5 88 -5 19
-12 80 -15 136 l-5 102 47 20 c50 22 131 27 197 12 l37 -9 0 307 0 306 -22 15
c-29 18 -47 14 -76 -16 -26 -28 -49 -30 -79 -9 -20 14 -23 14 -34 -6 -6 -12
-8 -34 -5 -50 4 -21 1 -29 -13 -34 -28 -8 -48 3 -70 40 -20 34 -20 34 -51 18
-29 -14 -35 -14 -72 3 -49 22 -66 46 -74 108 -8 53 -3 59 53 75 21 6 45 6 66
-1 24 -7 40 -7 53 0 17 10 17 11 -7 12 -23 0 -52 24 -86 70 -6 8 -14 35 -18
60 -5 38 -3 49 15 68 32 33 82 30 114 -9 14 -16 46 -37 70 -45 36 -13 49 -23
62 -53 11 -25 30 -44 58 -59 51 -27 62 -28 69 -1 3 11 14 23 25 26 18 4 20 13
20 66 0 55 -1 58 -10 32 -5 -16 -10 -38 -10 -47 1 -20 -36 -25 -66 -9 -9 6
-29 12 -43 15 -35 7 -88 46 -107 77 -15 25 -14 30 14 85 l29 59 53 -1 c62 -2
93 -25 123 -89 18 -39 19 -13 19 1218 l0 1257 -631 0 c-609 0 -631 -1 -626
-18 2 -11 1 -37 -3 -58 -3 -23 -1 -58 6 -84 7 -25 15 -79 17 -120 3 -41 9 -86
14 -100 6 -13 6 -40 2 -59 -9 -40 -1 -121 12 -121 5 0 9 -42 9 -94 0 -52 4
-98 10 -101 12 -7 11 -47 -2 -101 -7 -31 -7 -48 3 -65 8 -15 12 -54 10 -105
-1 -44 3 -92 8 -106 7 -18 6 -48 -1 -92 -9 -54 -8 -79 5 -139 9 -39 16 -92 16
-117 0 -25 3 -94 7 -155 8 -119 8 -306 -1 -342 -13 -54 -67 -8 -94 81 -16 53
-20 97 -22 257 -2 199 -2 219 -13 449 -11 236 -15 369 -21 615 -9 414 -10 470
-2 483 5 7 4 12 -3 12 -6 0 -8 14 -4 40 l7 40 -543 0 -542 0 6 -57z m-1983
-1720 c13 -16 12 -17 -3 -4 -10 7 -18 15 -18 17 0 8 8 3 21 -13z m1354 -33 c3
-6 -4 -14 -17 -19 -28 -10 -30 -9 -22 13 7 18 29 21 39 6z m1021 -211 c9 -16
-21 -43 -40 -36 -9 4 -16 16 -16 27 0 15 7 20 24 20 14 0 28 -5 32 -11z m864
-99 c0 -6 33 -10 80 -10 64 0 80 -3 80 -15 0 -9 9 -15 25 -15 25 0 25 0 25
-99 0 -94 -1 -101 -25 -119 -13 -11 -22 -22 -19 -25 4 -3 -1 -20 -10 -38 -9
-18 -16 -36 -16 -41 0 -4 -9 -27 -19 -51 -11 -23 -21 -61 -24 -84 -3 -23 -15
-55 -27 -70 -22 -28 -70 -50 -70 -32 0 6 -4 8 -9 4 -5 -3 -25 2 -44 11 -24 11
-47 38 -80 93 -43 72 -104 131 -135 131 -7 0 -12 4 -12 9 0 5 -10 13 -22 16
-36 10 -124 51 -241 112 -37 19 -93 21 -174 7 -68 -11 -80 -11 -93 1 -10 10
-11 15 -2 15 7 0 12 8 12 18 0 28 148 97 240 111 41 7 77 17 81 23 5 7 27 9
65 4 70 -7 253 15 304 38 40 17 110 21 110 6z m-3900 -262 c11 -7 18 -18 16
-25 -3 -7 11 -17 32 -24 20 -7 42 -19 48 -27 7 -10 20 -13 40 -9 17 3 36 0 47
-8 11 -8 25 -11 32 -9 7 3 16 1 20 -5 3 -6 17 -11 31 -11 13 0 24 -4 24 -9 0
-12 95 -111 107 -111 5 0 16 -9 26 -20 9 -11 24 -20 32 -20 8 0 15 -4 15 -10
0 -5 9 -10 20 -10 20 0 44 -32 33 -44 -3 -3 0 -6 9 -6 22 0 46 -65 53 -146 7
-69 6 -71 -21 -89 -22 -14 -39 -16 -88 -11 -34 4 -108 11 -166 16 -58 5 -116
12 -130 16 -31 8 -60 33 -60 51 0 7 -9 22 -20 33 -11 11 -20 27 -20 35 0 8 -6
12 -14 9 -7 -3 -16 1 -19 9 -7 19 52 46 111 51 51 5 65 14 33 23 -17 4 -19 8
-9 14 18 11 1 25 -39 32 -21 4 -33 2 -33 -5 0 -16 -69 -2 -91 18 -13 12 -16
20 -8 24 15 10 -35 22 -56 13 -12 -4 -24 2 -36 18 -10 13 -19 18 -19 11 0 -7
-14 1 -30 18 -17 17 -34 29 -38 26 -4 -2 -9 14 -9 36 -1 23 -8 45 -15 49 -17
11 10 59 41 74 15 7 19 15 15 29 -6 18 -2 19 55 13 33 -4 70 -12 81 -19z
m2992 -170 c62 -55 91 -120 91 -208 1 -85 -16 -125 -85 -203 -26 -29 -26 -29
-52 -11 -14 11 -25 24 -26 29 0 6 -35 44 -79 85 l-79 75 9 59 c5 32 14 67 19
77 6 10 10 28 10 42 0 26 32 60 70 76 48 19 83 13 122 -21z m-6911 -39 c46
-24 44 -111 -4 -144 -34 -24 -94 -19 -122 10 -29 28 -31 45 -10 85 28 54 87
76 136 49z m5408 -44 c60 -51 62 -139 4 -185 -35 -28 -71 -25 -125 9 -51 32
-65 66 -54 126 l7 34 -30 -10 c-16 -6 -32 -17 -35 -24 -3 -9 0 -12 11 -8 18 7
37 -18 20 -29 -8 -5 -6 -12 6 -26 23 -25 21 -32 -6 -32 -25 0 -42 24 -52 76
-5 26 -2 35 21 53 16 12 41 21 63 21 20 0 43 5 51 10 29 19 87 11 119 -15z
m2681 -17 c32 -43 39 -95 18 -116 -7 -7 -26 -12 -44 -12 -62 0 -118 107 -79
150 31 34 71 26 105 -22z m-3160 -73 c0 -48 -51 -79 -114 -70 -28 5 -46 3 -50
-4 -4 -6 -18 -11 -32 -11 l-25 0 20 26 c12 15 21 41 21 60 0 38 7 42 26 17 13
-17 14 -17 20 5 8 29 35 28 68 -3 15 -14 31 -25 36 -25 14 0 21 18 10 25 -5 3
-10 13 -10 22 0 13 3 13 15 3 8 -7 15 -27 15 -45z m-17 -246 c35 -43 23 -46
-53 -17 -38 14 -52 27 -43 40 9 15 77 -2 96 -23z m-295 -61 c-2 -9 8 -12 30
-11 32 1 35 -2 60 -58 23 -51 29 -58 49 -53 20 5 23 2 23 -20 0 -19 5 -26 20
-26 17 0 18 3 8 25 -8 18 -8 29 -1 36 12 12 73 -55 111 -123 36 -63 50 -210
29 -286 -9 -31 -18 -66 -19 -77 -2 -12 -12 -21 -26 -23 -19 -3 -22 1 -22 31 0
21 7 41 20 52 11 10 24 33 29 52 13 45 -5 86 -70 160 -28 32 -56 69 -62 83 -6
14 -22 36 -35 49 l-23 25 6 -50 c6 -44 -20 -382 -30 -392 -2 -3 -7 7 -11 22
-3 14 -10 23 -16 20 -5 -3 -7 -12 -4 -20 9 -23 -45 -17 -84 9 -70 48 -107 60
-141 48 -18 -6 -47 -11 -65 -11 -19 0 -34 -4 -34 -10 0 -5 -6 -10 -14 -10 -8
0 -16 -7 -20 -15 -3 -8 -17 -20 -32 -25 -20 -8 -31 -6 -49 9 -14 10 -22 21
-20 25 3 3 2 4 -1 1 -4 -2 -14 0 -24 5 -20 11 -20 48 1 60 11 7 11 12 1 22 -6
6 -12 24 -12 38 0 37 -18 50 -66 50 -24 0 -46 5 -49 10 -3 6 -13 10 -21 10 -9
0 -12 -5 -8 -11 4 -8 -1 -9 -15 -4 -25 7 -79 55 -64 55 6 0 28 16 49 35 31 29
46 35 81 35 24 0 43 5 43 10 0 6 6 10 14 10 16 0 46 42 46 65 0 8 5 15 10 15
6 0 10 7 10 15 0 19 35 37 68 34 15 -2 32 0 39 4 15 9 33 -75 42 -198 l6 -90
8 80 c10 113 12 120 33 123 15 3 17 1 7 -9 -7 -7 -12 -22 -12 -33 1 -17 2 -18
6 -3 2 9 14 17 26 18 12 0 16 3 10 6 -14 5 -18 33 -5 33 5 0 14 15 21 33 8 19
25 42 40 51 14 10 18 15 8 12 -29 -9 -1 33 29 44 33 13 37 13 28 -2 -4 -7 3
-4 15 7 12 11 18 21 12 23 -6 2 -9 8 -5 13 8 13 24 11 22 -3z m-431 -4 c-3 -3
-12 -4 -19 -1 -8 3 -5 6 6 6 11 1 17 -2 13 -5z m313 -16 c0 -7 -7 -22 -15 -32
-14 -19 -15 -18 -15 12 0 22 5 32 15 32 8 0 15 -6 15 -12z m2108 0 c18 -18 15
-50 -11 -105 -39 -86 -63 -108 -112 -108 -52 0 -73 15 -59 44 18 39 147 181
164 181 3 0 11 -5 18 -12z m-2458 -24 c0 -11 -9 -14 -32 -12 -40 4 -48 25 -11
30 35 5 43 1 43 -18z m877 -26 c-3 -8 -6 -5 -6 6 -1 11 2 17 5 13 3 -3 4 -12
1 -19z m-17 -82 c21 -47 27 -77 11 -60 -4 5 -13 23 -19 39 -5 17 -13 38 -17
48 -15 37 6 14 25 -27z m-1067 -25 c29 -2 59 -39 48 -59 -11 -20 -81 -72 -97
-72 -5 0 -8 20 -6 45 3 30 -1 54 -12 70 -16 25 -16 25 16 21 18 -2 41 -4 51
-5z m1136 -41 c1 -13 0 -13 -9 0 -5 8 -9 24 -9 35 l0 20 9 -20 c5 -11 9 -27 9
-35z m-19 -122 c0 -5 -7 -8 -15 -8 -10 0 -15 10 -15 33 l1 32 14 -25 c8 -14
14 -28 15 -32z m-7153 -23 c48 -34 33 -144 -22 -165 -84 -32 -138 14 -116 97
21 76 83 106 138 68z m7133 -19 c0 -8 -7 -16 -15 -20 -17 -6 -18 -4 -9 18 8
20 24 21 24 2z m-6125 -6 c-3 -5 -10 -10 -16 -10 -5 0 -9 5 -9 10 0 6 7 10 16
10 8 0 12 -4 9 -10z m15 -60 c0 -5 -17 -9 -37 -9 -38 1 -38 1 -8 9 43 11 45
11 45 0z m8945 -25 c40 -23 85 -72 114 -125 8 -15 15 -71 19 -143 5 -126 -11
-224 -49 -299 -24 -48 -24 -73 1 -114 19 -30 21 -46 17 -183 -1 -83 0 -154 4
-159 4 -4 12 -32 18 -62 8 -47 7 -57 -7 -68 -10 -8 -15 -25 -15 -50 1 -20 -9
-65 -23 -99 -13 -34 -24 -82 -24 -106 0 -37 -5 -49 -26 -66 -45 -35 -87 -23
-86 25 0 16 -3 34 -7 39 -4 6 -17 37 -29 70 -23 66 -28 204 -9 240 16 30 9 94
-13 122 -22 29 -29 130 -9 150 14 14 20 166 8 228 -5 28 -17 70 -28 95 -13 31
-19 73 -20 137 -1 69 -8 112 -28 174 l-26 83 28 53 c44 85 110 105 190 58z
m-10298 -71 c22 -22 25 -32 21 -76 -6 -59 -33 -87 -85 -88 -38 0 -63 30 -63
77 0 97 69 145 127 87z m2666 -7 c75 1 137 -2 137 -5 0 -4 24 -8 53 -9 28 -1
72 -9 96 -18 24 -8 54 -15 67 -15 15 0 24 -6 24 -15 0 -10 10 -15 34 -15 36 0
66 -23 46 -35 -6 -4 -68 -13 -138 -21 -70 -8 -167 -19 -217 -24 -49 -6 -245
-10 -435 -9 -322 2 -352 1 -445 -20 -89 -19 -139 -22 -470 -27 -203 -3 -376
-7 -384 -10 -21 -7 6 -34 34 -34 12 0 40 -7 61 -16 38 -16 272 -47 286 -37 5
2 58 13 119 24 61 10 114 21 119 24 5 3 62 6 128 7 95 1 119 4 115 15 -3 8 3
13 17 13 18 0 20 -3 11 -14 -19 -22 1 -27 76 -19 37 4 90 7 116 6 36 -1 47 2
44 11 -4 9 2 12 16 9 30 -6 435 15 529 27 42 5 96 6 120 2 51 -9 138 -4 138 9
0 5 -25 9 -57 9 -31 0 -54 3 -50 6 3 3 50 6 105 7 55 1 95 5 88 10 -6 4 9 5
34 2 34 -3 39 -2 20 4 -21 8 -16 9 30 11 185 9 331 -11 373 -51 11 -10 24 -16
28 -13 4 2 11 0 14 -6 4 -7 11 -8 18 -1 9 7 12 -20 13 -107 1 -121 16 -181 66
-270 10 -18 18 -39 18 -48 0 -8 5 -12 10 -9 12 7 33 -43 26 -62 -3 -7 -1 -23
4 -35 8 -20 15 -11 11 15 -3 18 17 5 23 -15 11 -41 8 -52 -9 -38 -13 11 -15 8
-13 -21 l3 -34 -44 3 c-68 5 -106 -5 -121 -33 -10 -18 -22 -25 -42 -25 -16 0
-27 -4 -23 -10 3 -5 -3 -18 -15 -30 -25 -25 -26 -40 -1 -40 11 0 22 -9 26 -19
8 -27 102 -88 148 -96 20 -4 37 -11 37 -16 0 -5 18 -9 40 -9 22 0 40 -4 40
-10 0 -5 23 -10 50 -10 28 0 50 -4 50 -8 0 -9 44 -32 61 -32 6 0 7 5 4 10 -14
23 15 8 38 -19 13 -16 33 -29 43 -28 15 2 20 -6 22 -40 3 -38 6 -43 28 -43 17
0 24 -6 24 -19 0 -10 3 -46 6 -80 l7 -61 -182 0 -181 0 0 -40 c0 -29 4 -40 15
-40 12 0 15 -16 15 -80 l0 -80 -40 0 c-29 0 -40 4 -40 15 0 11 -11 15 -40 15
-29 0 -40 -4 -40 -15 0 -8 -4 -15 -10 -15 -5 0 -10 -18 -10 -40 0 -22 5 -40
10 -40 6 0 10 -18 10 -40 0 -36 3 -40 25 -40 23 0 25 -4 25 -40 0 -28 4 -40
14 -40 10 0 16 14 18 43 2 23 3 -14 3 -83 0 -69 -1 -106 -3 -82 -3 42 -3 42
-43 42 -35 0 -39 3 -39 25 0 25 -1 25 -80 25 -57 0 -80 4 -80 13 -1 15 -29
-33 -30 -50 0 -7 7 -13 15 -13 8 0 15 -4 15 -10 0 -5 -18 -10 -40 -10 -39 0
-40 1 -40 33 0 18 6 39 13 46 10 11 10 14 0 18 -8 3 -13 22 -13 44 0 39 0 39
-40 39 l-40 0 0 -40 c0 -36 3 -40 25 -40 23 0 25 -4 25 -40 0 -36 -3 -40 -24
-40 -13 0 -27 6 -30 13 -5 10 -7 10 -12 0 -9 -20 -31 -15 -37 7 -3 13 1 24 14
30 28 16 23 30 -11 30 -18 0 -30 5 -30 13 0 7 -18 25 -40 40 l-40 26 0 -28 c0
-23 5 -30 29 -34 27 -6 61 -31 61 -45 0 -4 -23 -5 -50 -4 -45 4 -51 7 -48 24
2 11 -5 26 -14 32 -24 15 -54 -4 -50 -33 3 -19 -2 -21 -42 -21 -34 0 -46 4
-46 15 0 8 -7 15 -15 15 -11 0 -15 -11 -15 -40 0 -22 -5 -40 -11 -40 -7 0 -8
-14 -4 -40 4 -26 3 -40 -4 -40 -6 0 -11 9 -11 19 0 11 -4 23 -10 26 -6 4 -10
-10 -10 -34 0 -40 -12 -53 -26 -30 -3 6 -2 14 4 18 5 3 13 41 17 84 5 55 11
77 21 77 8 0 14 7 14 15 0 8 -7 15 -15 15 -8 0 -15 -7 -15 -15 0 -12 -15 -15
-78 -15 l-79 0 -13 -40 c-16 -47 -41 -53 -57 -12 l-11 27 -1 -27 c-1 -27 -3
-28 -59 -28 l-58 0 4 40 c4 37 2 40 -22 40 -21 0 -26 5 -26 24 0 14 5 28 10
31 6 3 10 0 10 -7 0 -8 5 -7 17 5 9 9 14 19 12 22 -3 3 -35 7 -70 10 -35 2
-56 2 -46 -1 12 -4 17 -16 17 -45 l0 -39 -55 0 -55 0 0 40 0 40 -40 0 c-29 0
-40 4 -40 15 0 23 -72 20 -103 -5 -14 -11 -29 -35 -32 -53 -10 -42 -13 -47
-29 -41 -8 3 -17 21 -20 39 -8 43 -23 53 -41 29 -23 -30 -19 -64 7 -64 12 0
19 -3 15 -6 -3 -3 -19 -3 -36 1 -27 6 -31 11 -31 41 0 19 -8 43 -20 57 -16 18
-27 22 -65 19 -30 -3 -45 -9 -45 -18 0 -11 -16 -14 -65 -14 l-65 0 0 40 c0 29
-4 40 -15 40 -8 0 -15 5 -15 10 0 6 -9 10 -20 10 -11 0 -20 -4 -20 -10 0 -5
-6 -10 -14 -10 -8 0 -17 -6 -19 -12 -3 -7 -6 -3 -6 10 -1 13 3 20 9 17 15 -9
25 24 12 37 -8 8 -13 7 -18 -5 -3 -9 -13 -17 -20 -17 -8 0 -17 -7 -20 -15 -4
-10 -20 -15 -45 -15 l-39 0 0 -89 c0 -106 -8 -151 -26 -151 -8 0 -14 -8 -14
-18 0 -15 -6 -17 -35 -14 -29 3 -39 -1 -56 -22 -12 -15 -30 -26 -45 -26 -16 0
-24 -6 -24 -18 0 -20 -61 -47 -96 -43 -11 1 -27 -5 -34 -14 -13 -15 -9 -16 43
-12 31 3 54 1 52 -4 -9 -14 17 -22 27 -8 8 11 9 10 4 -4 -4 -11 6 -29 29 -53
42 -43 50 -105 15 -124 -11 -6 -20 -17 -20 -24 0 -8 -15 -23 -32 -35 l-33 -20
31 -11 c28 -10 31 -15 30 -51 0 -21 -6 -39 -12 -39 -6 0 -19 -9 -29 -20 -10
-11 -25 -20 -34 -20 -9 -1 -2 -7 16 -15 17 -7 40 -22 50 -32 10 -10 23 -18 28
-18 22 -1 65 -29 65 -42 0 -18 7 -16 37 7 37 29 79 26 114 -9 41 -41 41 -101
0 -142 -17 -16 -40 -29 -54 -29 -29 0 -73 32 -82 60 -6 17 -7 18 -34 2 -26
-15 -33 -14 -105 7 -43 13 -79 21 -80 20 -2 -2 -6 -20 -10 -39 -4 -25 -3 -31
4 -20 5 8 10 10 10 5 0 -15 73 -35 130 -35 30 0 68 -8 90 -19 22 -11 40 -15
40 -10 0 5 5 9 10 9 6 0 10 -9 10 -20 0 -17 5 -19 32 -13 l31 6 -19 -26 c-10
-15 -28 -27 -39 -28 -11 0 -33 -3 -50 -5 -25 -3 -27 -2 -12 6 9 6 22 8 27 5 6
-3 10 -1 10 4 0 14 -57 14 -65 1 -3 -5 -19 -10 -34 -10 -18 0 -37 -10 -56 -32
-21 -23 -23 -29 -9 -23 52 22 81 18 120 -18 44 -40 50 -83 20 -130 -32 -48
-89 -48 -145 -1 -25 21 -31 23 -31 9 0 -9 15 -22 35 -31 19 -8 48 -32 64 -54
26 -36 30 -38 47 -25 11 8 27 15 36 15 9 0 18 4 20 10 6 18 150 19 197 2 104
-39 98 -156 -10 -191 -44 -14 -82 -83 -66 -119 12 -27 24 -28 45 -3 10 11 33
23 53 26 30 6 41 2 63 -18 22 -21 26 -33 26 -80 0 -31 5 -59 12 -63 7 -4 8 -3
4 4 -13 21 11 13 43 -14 41 -34 42 -79 3 -117 -15 -15 -36 -27 -45 -27 -15 0
-16 -7 -11 -42 4 -24 18 -56 31 -71 12 -16 23 -33 23 -38 0 -5 11 -9 24 -9 38
0 41 -40 10 -106 l-26 -55 27 -35 c22 -28 25 -39 17 -62 -13 -39 -41 -34 -79
16 -36 47 -43 82 -17 82 13 0 15 6 9 33 -4 17 -8 40 -8 50 -1 9 -6 15 -12 12
-5 -3 -17 -8 -25 -11 -8 -3 -28 -23 -44 -45 -24 -35 -27 -44 -17 -63 7 -12 10
-35 7 -51 -2 -17 -5 -33 -5 -37 -1 -4 -23 -30 -51 -58 -52 -53 -59 -72 -35
-104 24 -32 18 -70 -18 -110 -18 -20 -39 -36 -45 -36 -7 0 -5 -11 6 -30 9 -16
20 -30 25 -30 18 0 6 -70 -19 -99 -25 -30 -54 -41 -54 -22 0 5 -14 17 -31 25
-33 16 -54 11 -79 -19 -10 -12 -26 -14 -74 -10 -33 3 -63 9 -66 13 -12 17 -77
42 -92 37 -15 -6 -16 2 -14 62 5 140 90 218 159 145 22 -23 25 -34 21 -64 -6
-32 -2 -40 25 -67 36 -35 47 -38 73 -14 25 23 23 32 -22 87 -22 26 -40 56 -40
65 0 49 99 121 167 121 36 0 43 3 43 20 0 11 -6 20 -13 20 -21 0 -39 54 -27
84 5 15 10 38 10 52 0 13 4 24 8 24 5 0 14 11 20 24 9 20 7 27 -9 42 -10 9
-19 26 -19 36 0 37 35 82 65 83 39 1 49 62 14 83 -22 14 -51 1 -46 -20 1 -6
-4 -13 -12 -16 -10 -3 -13 1 -8 17 3 11 1 21 -4 21 -5 0 -9 -7 -9 -15 0 -21
-13 -19 -28 5 -7 11 -18 20 -26 20 -19 0 -86 -89 -86 -115 0 -13 -7 -36 -15
-51 -20 -40 -19 -46 18 -69 27 -17 33 -27 35 -63 2 -30 -3 -54 -17 -78 -11
-19 -18 -40 -15 -48 3 -7 -2 -16 -11 -20 -9 -3 -14 -10 -11 -15 3 -5 -5 -4
-19 2 -14 7 -25 16 -25 20 0 4 -9 17 -20 29 l-20 22 0 -53 c0 -62 -22 -109
-53 -115 -12 -2 -44 -9 -71 -14 -48 -10 -51 -9 -87 21 -21 18 -46 47 -56 65
-21 38 -45 41 -63 8 -7 -15 -18 -22 -27 -19 -8 3 -13 0 -11 -8 2 -8 -7 -14
-22 -15 -34 -2 -50 5 -50 24 0 9 -9 26 -21 38 -25 27 -28 83 -5 116 22 30 20
41 -5 35 -16 -4 -18 -3 -9 8 20 24 1 37 -41 30 -25 -4 -39 -3 -39 4 0 6 -8 11
-18 11 -10 0 -26 6 -37 13 -26 18 -65 28 -65 16 0 -5 -18 -20 -40 -34 -30 -19
-53 -25 -94 -25 -72 0 -86 6 -86 40 0 15 -13 54 -30 86 -19 38 -30 74 -30 102
0 46 -16 55 -44 26 -9 -8 -31 -18 -50 -21 -38 -6 -52 5 -125 97 l-34 42 -15
-25 c-53 -87 -152 -37 -152 75 0 34 4 39 36 53 29 12 35 19 31 35 -3 12 1 33
9 48 12 24 12 28 -1 38 -22 16 -64 81 -71 109 -4 14 0 33 10 47 20 28 21 49 1
42 -11 -5 -15 1 -15 22 -1 114 -9 173 -30 217 -17 36 -20 51 -11 60 6 6 11 21
11 33 0 28 14 37 51 36 35 -1 59 -23 59 -54 1 -34 79 -91 113 -83 38 10 40 31
6 59 -21 18 -32 38 -35 63 -7 51 -36 113 -53 113 -7 0 -11 -6 -8 -15 4 -8 2
-17 -3 -20 -6 -4 -10 -2 -10 4 0 5 -14 8 -32 5 -29 -5 -36 -1 -57 30 -13 20
-27 33 -31 31 -16 -10 -68 45 -74 79 -8 44 22 104 46 90 4 -2 12 5 18 16 7 13
18 19 26 16 8 -3 14 -1 14 4 0 17 -38 11 -50 -7 -8 -14 -9 -8 -4 26 13 90 13
111 -1 111 -21 0 -28 19 -14 36 10 12 9 13 -4 8 -21 -8 -81 27 -64 38 8 6 5
10 -11 14 -27 8 -29 24 -2 31 26 7 26 23 0 30 -23 6 -24 12 -7 33 28 35 44 41
71 29 14 -7 26 -18 26 -24 0 -16 80 -29 94 -15 7 7 2 18 -16 35 -28 26 -44 33
-33 15 11 -17 -7 -11 -21 8 -7 9 -14 28 -14 42 -1 14 -4 19 -7 13 -10 -26 -19
-12 -21 33 -1 31 -8 52 -19 61 -13 10 -15 16 -5 19 6 3 12 12 12 19 0 19 -43
23 -57 5 -10 -13 -12 -11 -13 13 0 29 -14 36 -24 12 -3 -8 -10 -15 -17 -15 -6
0 -9 7 -5 15 3 8 2 15 -3 15 -4 0 -6 10 -4 23 3 14 -2 29 -11 36 -9 8 -16 22
-16 32 0 10 -5 21 -10 24 -7 4 -7 12 0 25 14 26 12 40 -5 40 -8 0 -15 9 -15
20 0 22 10 26 27 9 8 -8 13 -8 17 0 4 6 0 11 -8 11 -15 0 -20 11 -17 38 1 6
-3 12 -9 12 -6 0 -10 6 -9 13 3 26 -1 37 -15 37 -8 0 -17 8 -19 18 -3 9 -5 4
-6 -13 -1 -21 -4 -26 -10 -16 -5 7 -13 11 -18 8 -6 -4 -8 5 -5 21 4 22 2 25
-9 15 -20 -19 -26 -16 -33 19 -8 43 3 98 20 98 8 0 14 8 14 19 0 10 7 24 15
31 8 7 15 19 15 26 0 8 5 14 10 14 6 0 10 5 10 11 0 18 40 69 54 69 8 0 31 16
52 36 80 75 110 91 179 99 36 3 65 10 65 14 0 4 10 18 21 30 17 18 23 20 30 9
7 -10 9 -9 9 4 0 11 12 18 43 23 64 10 109 28 94 37 -8 5 -7 8 6 8 11 0 17 8
17 25 0 18 4 23 15 19 12 -5 15 2 15 28 0 19 13 60 29 91 25 48 27 58 14 65
-8 5 -17 27 -20 49 l-5 41 -58 7 c-32 4 -96 7 -142 7 -129 0 -305 27 -358 54
-25 13 -57 24 -72 24 -15 0 -29 4 -32 9 -3 4 -19 11 -34 14 -22 5 -31 13 -35
35 -6 32 1 72 13 72 4 0 25 16 46 35 21 19 44 35 52 35 7 0 11 3 8 8 -6 10 29
84 37 76 3 -4 14 1 23 10 15 16 15 17 -9 11 -36 -9 -42 11 -7 25 17 7 31 18
31 24 9 87 26 126 56 126 15 0 15 -1 0 -18 -21 -23 -22 -52 -2 -52 10 0 15 10
15 28 0 15 4 32 8 38 4 8 62 14 162 17 85 3 211 10 280 15 69 6 200 13 292 16
127 4 174 9 195 21 27 15 26 16 -37 10 -189 -15 -413 -27 -593 -31 -111 -2
-224 -7 -251 -10 -34 -4 -47 -3 -42 5 5 7 1 9 -8 5 -12 -5 -16 0 -16 18 0 13
-6 30 -13 37 -10 11 -2 12 43 7 30 -4 83 -10 117 -13 l62 -5 42 45 c23 26 44
46 48 45 3 0 8 0 11 2 9 3 43 8 123 19 63 9 85 8 120 -4 23 -8 57 -15 76 -15
38 0 174 30 181 41 3 4 26 10 51 14 62 9 158 -11 180 -38 16 -21 17 -21 56 -4
21 10 59 20 83 22 25 2 90 9 145 15 55 6 202 10 326 9 136 0 234 3 245 9 92
50 131 55 354 53 58 0 130 3 160 8 30 5 127 6 215 3 88 -4 222 -6 298 -5z
m4623 -113 c-3 -9 -6 -21 -6 -27 0 -7 -4 -7 -9 2 -10 16 -4 41 11 41 6 0 7 -7
4 -16z m-86 -79 c0 -8 9 -15 20 -15 17 0 20 -6 18 -32 -1 -18 -8 -46 -17 -63
l-15 -30 -8 45 c-4 25 -10 60 -13 78 -4 19 -2 32 5 32 5 0 10 -7 10 -15z
m-4635 -5 c-3 -5 -12 -10 -20 -10 -8 0 -17 5 -20 10 -4 6 5 10 20 10 15 0 24
-4 20 -10z m3091 -11 c44 -3 54 -8 98 -51 27 -26 53 -48 57 -48 5 0 9 -9 9
-21 0 -13 5 -19 13 -16 19 7 35 -23 42 -77 l6 -45 -43 -19 c-42 -19 -70 -20
-133 -6 -33 7 -74 49 -75 77 0 20 -16 23 -23 5 -3 -8 -6 -6 -6 5 -1 9 4 17 11
17 7 0 5 7 -5 18 -11 13 -15 37 -15 94 1 42 4 75 8 73 3 -2 28 -5 56 -6z
m-3548 -6 c-10 -2 -26 -2 -35 0 -10 3 -2 5 17 5 19 0 27 -2 18 -5z m3812 -67
c0 -5 -9 1 -20 14 -11 13 -20 28 -20 34 0 13 39 -35 40 -48z m-1844 -395 c23
-21 50 -79 41 -87 -3 -3 -14 -1 -24 5 -10 6 -13 11 -6 11 6 0 -2 13 -18 29
-44 45 -37 84 7 42z m-31 -521 c12 -19 -12 -10 -31 11 -19 22 -19 22 3 10 12
-6 25 -16 28 -21z m-2370 -620 c0 -13 -6 -25 -12 -27 -9 -3 -13 6 -13 27 0 21
4 30 13 28 6 -3 12 -15 12 -28z m-158 -2 c-3 -8 -6 -5 -6 6 -1 11 2 17 5 13 3
-3 4 -12 1 -19z m98 -28 c3 -5 1 -10 -4 -10 -6 0 -11 5 -11 10 0 6 2 10 4 10
3 0 8 -4 11 -10z m545 -26 c0 -8 -4 -12 -10 -9 -5 3 -10 10 -10 16 0 5 5 9 10
9 6 0 10 -7 10 -16z m300 -24 c0 -22 -4 -40 -10 -40 -5 0 -10 18 -10 40 0 22
5 40 10 40 6 0 10 -18 10 -40z m4546 9 c11 -18 -17 -129 -33 -129 -8 0 -11 -4
-8 -10 3 -5 -1 -10 -9 -10 -9 0 -16 -7 -16 -15 0 -8 -2 -15 -4 -15 -2 0 -12
-3 -22 -7 -13 -5 -16 -3 -11 10 3 9 0 23 -8 31 -19 19 -19 46 -1 60 8 6 16 18
18 26 3 15 65 70 79 70 4 0 11 -5 15 -11z m-4826 -56 c0 -5 -4 -14 -9 -21 -6
-10 -10 -9 -14 7 -3 14 0 21 9 21 8 0 14 -3 14 -7z m2276 -45 c11 -37 39 -59
122 -100 45 -22 82 -44 82 -49 0 -5 17 -28 38 -52 65 -72 127 -187 138 -259 4
-23 14 -50 23 -59 9 -10 24 -31 33 -47 16 -26 16 -31 3 -42 -12 -10 -15 -9
-15 4 0 9 -6 16 -14 16 -7 0 -16 9 -19 20 -3 12 -14 20 -26 20 -12 0 -30 9
-41 20 -11 11 -22 20 -25 20 -8 0 -145 137 -145 144 0 7 -10 20 -37 51 -7 7
-13 21 -13 29 0 9 -3 16 -7 16 -9 0 -33 49 -33 67 0 7 -7 13 -16 13 -12 0 -14
-9 -9 -47 11 -88 27 -177 42 -233 8 -30 17 -73 20 -95 3 -22 12 -48 21 -58 15
-17 27 -65 39 -159 3 -27 9 -48 14 -48 5 0 9 -12 9 -26 0 -14 7 -32 15 -40 8
-9 15 -20 15 -25 0 -5 -7 -9 -15 -9 -8 0 -15 7 -15 15 0 11 -11 15 -39 15 -27
0 -49 8 -69 25 -17 14 -36 25 -44 25 -8 0 -23 8 -34 18 -24 21 -113 82 -119
82 -5 0 -53 40 -87 73 -10 9 -22 17 -28 17 -5 0 -28 9 -50 21 -51 27 -90 20
-90 -16 0 -14 -4 -25 -10 -25 -5 0 -10 -6 -10 -12 -1 -20 -36 -58 -53 -58 -14
0 -75 -28 -87 -40 -3 -3 -22 -14 -42 -24 -21 -11 -38 -23 -38 -28 0 -13 -56
-68 -69 -68 -6 0 -11 -18 -11 -40 0 -22 -4 -40 -10 -40 -5 0 -10 -18 -10 -40
0 -22 5 -40 10 -40 6 0 10 -18 10 -40 0 -22 -4 -40 -10 -40 -5 0 -10 -18 -10
-40 0 -22 5 -40 10 -40 6 0 10 -18 10 -40 l0 -40 -160 0 -160 0 0 40 c0 33 -3
40 -20 40 -17 0 -20 -7 -20 -40 0 -33 -3 -40 -20 -40 -17 0 -20 -7 -20 -39 0
-30 -7 -46 -37 -77 -34 -37 -35 -39 -15 -42 26 -4 27 -10 5 -34 -22 -25 -31
-23 -36 10 -3 22 -4 20 -6 -11 -2 -50 -71 -131 -71 -82 0 11 -11 15 -40 15
-33 0 -40 -3 -40 -20 0 -17 -7 -20 -40 -20 -22 0 -40 -4 -40 -10 0 -5 11 -10
25 -10 29 0 31 -7 8 -32 -20 -22 -33 -23 -33 -3 0 11 -11 15 -40 15 -38 0 -40
-2 -40 -30 0 -28 -2 -30 -40 -30 l-40 0 0 42 0 41 -40 -43 c-35 -38 -40 -49
-40 -92 l0 -48 40 0 c22 0 40 -4 40 -10 0 -5 18 -10 40 -10 34 0 40 3 40 22 0
18 6 15 40 -22 l40 -43 0 34 1 34 20 -24 c12 -14 17 -31 13 -43 -10 -33 18
-238 33 -238 19 0 17 -4 -23 -44 -30 -30 -39 -34 -48 -23 -6 8 -25 19 -42 26
-17 7 -45 30 -63 51 -18 22 -41 40 -52 40 -12 0 -21 9 -25 25 -3 14 -17 34
-30 44 -16 13 -24 29 -24 49 0 17 -4 34 -10 37 -5 3 -10 31 -10 61 0 53 -1 54
-29 54 -16 0 -31 -5 -33 -12 -3 -9 -26 -9 -96 0 -89 11 -94 10 -126 -12 -19
-12 -48 -28 -64 -35 -17 -7 -32 -20 -35 -30 -2 -10 -23 -22 -48 -30 -113 -34
-138 -45 -142 -63 -5 -16 -9 -17 -24 -7 -21 13 -24 17 -68 104 l-30 60 -2 234
-2 235 40 40 c23 22 38 45 35 53 -3 8 -2 11 3 8 5 -3 12 3 16 14 3 11 20 30
38 44 18 14 95 88 172 164 162 162 213 192 405 241 123 32 180 58 231 104 62
57 139 108 229 153 53 27 88 50 84 56 -4 7 1 9 12 7 11 -3 35 4 55 13 20 10
39 15 43 12 3 -3 15 2 27 13 20 18 36 19 248 16 l226 -4 1 40 c1 23 10 51 23
69 38 51 73 64 190 72 113 8 136 14 127 38 -3 8 -2 12 3 9 12 -8 21 29 21 91
0 58 8 86 21 77 5 -3 7 -11 3 -17 -3 -7 13 10 36 36 40 46 43 47 61 31 10 -9
21 -26 25 -36z m-4826 12 c0 -5 -4 -10 -10 -10 -5 0 -10 5 -10 10 0 6 5 10 10
10 6 0 10 -4 10 -10z m2626 -40 c8 0 14 -4 14 -9 0 -17 -19 -22 -39 -11 -18 9
-19 14 -8 37 11 26 12 26 15 5 2 -12 10 -22 18 -22z m834 15 c0 -8 -4 -15 -10
-15 -5 0 -10 7 -10 15 0 8 5 15 10 15 6 0 10 -7 10 -15z m-720 -19 c0 -2 3
-11 6 -20 4 -11 1 -16 -10 -16 -9 0 -21 -9 -28 -20 -7 -11 -21 -20 -30 -20
-22 0 -24 18 -3 26 8 4 15 10 15 15 0 15 23 38 38 39 6 0 12 -2 12 -4z m587
-18 c-3 -8 -6 -5 -6 6 -1 11 2 17 5 13 3 -3 4 -12 1 -19z m-717 -48 c0 -5 -7
-10 -16 -10 -8 0 -12 5 -9 10 3 6 10 10 16 10 5 0 9 -4 9 -10z m1200 0 c0 -5
-18 -10 -40 -10 -22 0 -40 5 -40 10 0 6 18 10 40 10 22 0 40 -4 40 -10z m-200
-18 c0 -4 -5 -13 -12 -20 -18 -18 -28 -15 -28 8 0 13 7 20 20 20 11 0 20 -4
20 -8z m237 -105 c-2 -7 -11 -13 -20 -15 -12 -3 -17 4 -17 23 0 23 2 25 21 15
11 -6 18 -17 16 -23z m623 19 c0 -3 -4 -8 -10 -11 -5 -3 -10 -1 -10 4 0 6 5
11 10 11 6 0 10 -2 10 -4z m2540 -92 c0 -35 -5 -47 -30 -68 -54 -45 -146 -49
-166 -7 -32 64 99 160 174 128 18 -8 22 -18 22 -53z m-4906 -69 c4 -10 -1 -15
-14 -15 -11 0 -20 7 -20 15 0 8 6 15 14 15 8 0 16 -7 20 -15z m-2074 -48 c0
-5 -7 -6 -16 -3 -9 3 -18 6 -20 6 -2 0 -4 7 -4 15 0 13 3 13 20 3 11 -7 20
-17 20 -21z m2067 -499 c29 -27 36 -49 24 -81 -15 -39 -58 -57 -97 -41 -41 17
-52 32 -60 82 -6 40 -5 42 27 57 40 17 75 12 106 -17z m-2029 -15 c32 -46 36
-85 12 -116 -12 -15 -31 -27 -43 -27 -26 0 -67 38 -61 55 3 7 1 16 -5 20 -18
10 -12 54 9 75 29 29 65 25 88 -7z m2142 -202 c0 -5 -6 -11 -12 -14 -7 -2 1
-8 17 -12 51 -12 57 -15 53 -28 -7 -19 -48 -21 -62 -1 -7 9 -18 14 -24 10 -7
-4 -12 -1 -12 8 0 8 -6 16 -12 19 -8 3 -3 9 12 15 32 14 40 14 40 3z m-320
-29 c0 -5 11 -15 25 -22 30 -16 35 -44 6 -35 -12 3 -21 1 -24 -7 -2 -7 -3 -5
-1 5 1 10 -6 26 -17 35 -23 20 -24 32 -4 32 8 0 15 -4 15 -8z m-1722 -34 c2
-12 -2 -15 -17 -11 -18 4 -21 1 -21 -23 -1 -26 -2 -27 -11 -10 -8 13 -8 25 2
42 14 27 42 28 47 2z m-230 -15 c3 -20 -1 -23 -28 -23 -25 0 -31 3 -26 16 3 9
6 20 6 26 0 21 45 3 48 -19z m276 -13 c3 -14 8 -37 12 -51 4 -20 0 -29 -20
-42 -16 -11 -27 -13 -31 -6 -4 6 2 13 14 16 25 6 25 3 6 41 -13 25 -14 34 -3
51 14 24 15 23 22 -9z m2006 0 c0 -5 -5 -10 -11 -10 -5 0 -7 5 -4 10 3 6 8 10
11 10 2 0 4 -4 4 -10z m-2070 -50 c0 -5 -2 -10 -4 -10 -3 0 -8 5 -11 10 -3 6
-1 10 4 10 6 0 11 -4 11 -10z m-27 -71 c18 -30 20 -43 12 -74 -6 -21 -18 -43
-28 -49 -15 -9 -24 -5 -53 26 -36 40 -44 81 -23 119 18 34 67 22 92 -22z
m2248 -12 c31 -21 34 -26 30 -67 -3 -43 -21 -69 -49 -70 -15 0 -62 45 -62 60
0 5 -4 10 -9 10 -15 0 -21 31 -10 51 9 17 39 36 60 38 3 1 21 -9 40 -22z
m1389 -41 c0 -2 -7 -9 -15 -16 -12 -10 -15 -10 -15 4 0 9 7 16 15 16 8 0 15
-2 15 -4z m-3566 -141 c-6 -16 -24 -21 -24 -7 0 11 11 22 21 22 5 0 6 -7 3
-15z m1974 -7 c-3 -23 -38 -39 -38 -19 0 6 7 11 15 11 9 0 12 6 9 15 -4 8 -1
15 6 15 6 0 10 -10 8 -22z m-208 -12 c0 -3 -4 -8 -10 -11 -5 -3 -10 -1 -10 4
0 6 5 11 10 11 6 0 10 -2 10 -4z m-1727 -52 c21 -20 27 -33 25 -57 -2 -26 -7
-31 -23 -29 -11 2 -28 13 -37 25 -10 12 -22 27 -28 34 -11 14 -13 37 -3 46 13
14 39 6 66 -19z m17 -109 c0 -2 -9 -9 -20 -15 -16 -9 -18 -8 -14 5 5 13 34 22
34 10z m-90 -35 c39 -41 46 -77 22 -109 -30 -40 -57 -39 -86 6 -37 57 -42 87
-17 112 29 29 48 26 81 -9z m120 -170 c0 -6 11 -23 25 -38 14 -15 28 -43 31
-62 4 -19 13 -48 22 -65 8 -16 19 -38 24 -48 5 -10 6 -27 3 -37 -5 -16 -9 -17
-24 -8 -22 14 -102 0 -108 -19 -3 -7 8 -15 24 -19 55 -12 63 -16 63 -29 0 -8
9 -19 20 -25 10 -6 25 -29 32 -51 11 -38 10 -43 -8 -56 -28 -21 -90 -10 -123
21 -15 14 -32 26 -38 26 -7 0 -14 9 -18 19 -3 11 -12 22 -20 24 -7 3 -11 14
-9 24 5 18 -40 72 -54 65 -10 -5 -20 40 -15 66 6 25 -9 29 -27 7 -7 -8 -21
-15 -31 -15 -11 0 -19 7 -19 15 0 8 -3 15 -7 15 -11 0 -34 51 -28 60 3 5 28 2
56 -5 49 -13 54 -13 101 11 32 16 49 31 47 42 -3 32 1 43 26 67 25 26 55 33
55 15z m-471 -66 c17 -14 36 -43 42 -64 10 -33 9 -43 -5 -65 -13 -20 -22 -24
-44 -19 -40 10 -49 20 -61 69 -20 78 -14 102 26 104 6 1 25 -11 42 -25z m2591
-16 c0 -63 -58 -91 -80 -39 -13 34 -8 48 24 61 42 17 56 12 56 -22z m2290
-148 l0 -120 35 0 c34 0 35 -1 37 -42 l1 -43 4 43 c3 28 9 42 19 42 11 0 14
-17 14 -80 0 -67 -3 -80 -16 -80 -13 0 -15 -9 -13 -42 l4 -43 -42 4 c-29 2
-43 8 -43 17 0 10 -12 14 -40 14 -27 0 -40 4 -40 14 0 7 -7 19 -15 26 -9 7
-15 29 -15 51 0 35 -3 39 -25 39 -22 0 -25 4 -25 40 0 33 3 40 20 40 18 0 20
7 20 80 0 73 -2 80 -20 80 -17 0 -20 7 -20 40 l0 40 80 0 80 0 0 -120z m-4075
92 c17 -12 45 -60 45 -77 0 -18 -20 -56 -35 -67 -16 -12 -35 -9 -35 5 0 6 -16
29 -35 51 -35 39 -40 51 -29 80 6 17 70 23 89 8z m422 -194 c30 -29 33 -38 33
-89 0 -64 -15 -106 -39 -113 -40 -10 -278 -2 -315 10 -34 12 -42 12 -62 -1
-30 -19 -43 -19 -92 3 -78 35 -123 122 -85 165 17 18 68 23 77 8 9 -14 117
-10 155 5 18 8 52 14 75 14 84 -1 142 5 161 17 33 20 57 15 92 -19z m-306
-325 c17 -16 42 -50 55 -76 14 -26 31 -50 39 -54 8 -3 15 -13 15 -23 0 -13
-11 -19 -43 -24 -47 -7 -77 0 -77 18 0 12 -63 66 -78 66 -14 0 -24 48 -16 73
16 51 60 59 105 20z m1388 -7 c18 -21 9 -77 -14 -92 -29 -19 -49 -2 -49 39 0
56 36 86 63 53z m-864 -6 c-4 -6 6 -10 23 -10 33 0 47 -13 54 -51 4 -21 1 -25
-13 -22 -10 3 -23 11 -29 18 -6 7 -20 11 -30 8 -11 -3 -20 0 -20 6 0 6 -9 11
-20 11 -13 0 -20 7 -20 19 0 18 8 22 53 30 5 0 5 -3 2 -9z m189 -74 c3 -14 3
-32 0 -41 -4 -10 3 -27 21 -45 26 -27 26 -29 8 -39 -38 -20 -88 16 -68 49 3 5
1 10 -5 10 -6 0 -15 12 -21 27 -9 24 -7 30 11 45 30 25 47 22 54 -6z m-1455
-82 c45 -57 45 -124 1 -124 -48 0 -80 42 -80 104 0 52 45 63 79 20z m2285 -23
c19 -21 18 -62 -2 -99 -14 -24 -42 -30 -42 -9 0 6 -16 25 -35 40 -39 31 -42
42 -18 69 21 24 75 23 97 -1z"/>
<path d="M8125 4920 c3 -5 8 -10 11 -10 2 0 4 5 4 10 0 6 -5 10 -11 10 -5 0
-7 -4 -4 -10z"/>
<path d="M1216 4631 c-4 -6 -5 -11 -2 -11 2 0 1 -13 -4 -30 -7 -23 -5 -30 6
-30 17 0 81 56 73 64 -12 12 -67 18 -73 7z"/>
<path d="M5067 4323 c-4 -3 -7 -11 -7 -17 0 -6 5 -5 12 2 6 6 9 14 7 17 -3 3
-9 2 -12 -2z"/>
<path d="M2525 4106 c-9 -14 -14 -30 -10 -35 3 -6 6 -72 6 -147 -1 -116 2
-143 20 -184 12 -27 18 -54 14 -59 -10 -18 134 -19 255 -3 36 5 67 5 68 0 2
-4 26 -8 53 -8 42 0 49 3 49 20 0 24 45 47 83 42 31 -4 37 -32 6 -32 -11 0
-27 -7 -35 -15 -14 -13 -12 -15 20 -15 19 0 65 7 102 16 37 8 82 14 100 12 35
-3 56 8 38 20 -6 4 -14 17 -18 30 -7 20 -4 22 33 22 22 0 51 -4 65 -9 20 -8
29 -5 51 15 15 14 38 24 55 24 48 0 60 9 60 46 0 27 -5 35 -24 40 -16 4 -34 0
-48 -10 -22 -16 -22 -16 -1 -16 33 0 53 -11 53 -27 0 -12 -7 -14 -31 -9 -17 3
-35 6 -40 6 -5 0 -9 7 -9 15 0 9 -9 15 -23 15 -13 0 -32 9 -42 20 -18 20 -17
20 37 20 32 0 62 6 74 15 26 20 34 19 34 -5 0 -16 7 -20 38 -20 42 0 71 -13
53 -24 -6 -4 -11 -19 -11 -33 0 -24 2 -25 33 -19 82 18 166 26 207 21 25 -3
131 1 235 9 131 11 226 13 305 8 82 -6 124 -5 145 4 17 6 49 11 73 10 28 -1
42 3 42 12 0 21 41 13 62 -13 l20 -26 24 26 c12 14 31 25 41 26 15 0 14 2 -4
11 l-23 11 26 23 c14 13 29 24 35 24 5 0 9 6 9 14 0 22 -40 46 -77 46 -26 0
-33 4 -33 20 0 10 -8 24 -18 29 -23 12 -138 3 -177 -14 -30 -13 -81 -10 -91 6
-8 14 -34 10 -34 -5 0 -9 -8 -12 -24 -9 -13 3 -48 0 -78 -6 -36 -8 -54 -9 -56
-1 -4 12 -114 13 -127 1 -6 -6 -40 -6 -85 -1 -107 13 -190 12 -190 -1 0 -6 -7
-8 -16 -5 -44 17 -64 18 -64 3 0 -8 -20 -22 -45 -31 -25 -10 -45 -22 -45 -27
0 -5 -16 -9 -35 -9 -19 0 -35 5 -35 10 0 6 -7 10 -16 10 -10 0 -14 6 -10 15 7
20 -18 31 -86 38 -31 3 -67 12 -80 20 -42 26 -345 67 -423 57 -30 -4 -279 0
-367 6 -74 5 -77 5 -93 -20z m640 -137 c-16 -7 -13 -8 13 -6 43 5 51 -13 21
-47 -18 -21 -25 -23 -37 -13 -12 9 -16 9 -19 0 -3 -7 -18 -13 -34 -13 -17 0
-29 -5 -29 -13 0 -9 12 -11 41 -9 27 3 39 1 35 -6 -8 -13 -96 -43 -97 -34 -4
25 5 79 17 107 13 33 29 40 89 43 l20 1 -20 -10z m565 -9 c0 -5 -2 -10 -4 -10
-3 0 -8 5 -11 10 -3 6 -1 10 4 10 6 0 11 -4 11 -10z m-106 -15 c11 -8 28 -15
38 -15 10 0 18 -7 18 -16 0 -14 -2 -14 -22 0 -12 9 -35 16 -50 16 -27 0 -43
12 -31 24 10 10 26 7 47 -9z m-312 -30 c0 -5 -6 -12 -13 -16 -8 -3 -24 -11
-37 -18 -22 -12 -62 -7 -62 7 0 4 15 15 33 24 34 18 77 20 79 3z m1423 -5 c-3
-5 -12 -7 -20 -3 -21 7 -19 13 6 13 11 0 18 -4 14 -10z"/>
<path d="M2250 4100 c-8 -5 -30 -10 -48 -10 -19 0 -45 -9 -59 -20 -14 -11 -41
-20 -59 -20 -37 0 -52 -26 -35 -59 6 -11 11 -35 11 -55 0 -19 3 -37 8 -40 4
-2 6 14 5 37 -2 38 -1 39 6 12 l8 -30 7 28 c12 41 40 35 56 -13 7 -22 17 -40
21 -40 4 0 5 -9 2 -21 -4 -13 -8 -17 -13 -9 -4 6 -6 -11 -4 -39 2 -39 -1 -51
-14 -54 -10 -3 -5 -5 10 -6 18 -1 39 -14 59 -36 34 -37 87 -51 75 -19 -4 9 -1
23 5 30 6 7 9 19 6 26 -2 7 1 20 8 28 15 19 29 117 17 124 -5 3 -7 37 -5 76 3
49 1 70 -7 70 -6 0 -8 5 -5 10 8 13 -12 40 -29 40 -6 0 -18 -5 -26 -10z m0
-380 c0 -5 -2 -10 -4 -10 -3 0 -8 5 -11 10 -3 6 -1 10 4 10 6 0 11 -4 11 -10z"/>
<path d="M2060 3781 c0 -26 4 -31 25 -31 14 0 25 5 25 10 0 6 -4 10 -9 10 -5
0 -8 8 -7 17 0 10 -7 19 -16 21 -14 3 -18 -3 -18 -27z"/>
<path d="M2115 3800 c-3 -5 -1 -10 4 -10 6 0 11 5 11 10 0 6 -2 10 -4 10 -3 0
-8 -4 -11 -10z"/>
<path d="M3625 3780 c-3 -5 3 -10 15 -10 12 0 18 5 15 10 -3 6 -10 10 -15 10
-5 0 -12 -4 -15 -10z"/>
<path d="M5433 3685 c0 -22 2 -30 4 -17 2 12 2 30 0 40 -3 9 -5 -1 -4 -23z"/>
<path d="M5360 3585 c0 -11 11 -15 40 -15 29 0 40 4 40 15 0 11 -11 15 -40 15
-29 0 -40 -4 -40 -15z"/>
<path d="M3230 3340 c0 -5 5 -10 10 -10 6 0 10 5 10 10 0 6 -4 10 -10 10 -5 0
-10 -4 -10 -10z"/>
<path d="M1030 3330 c-9 -6 -10 -10 -3 -10 6 0 15 5 18 10 8 12 4 12 -15 0z"/>
<path d="M4560 3315 c0 -8 2 -15 4 -15 2 0 6 7 10 15 3 8 1 15 -4 15 -6 0 -10
-7 -10 -15z"/>
<path d="M3200 3305 c0 -16 9 -19 34 -9 20 8 11 24 -15 24 -10 0 -19 -7 -19
-15z"/>
<path d="M1030 3278 c0 -9 5 -20 11 -23 17 -11 18 -2 3 19 -12 17 -14 17 -14
4z"/>
<path d="M1080 3281 c0 -6 4 -13 10 -16 6 -3 7 1 4 9 -7 18 -14 21 -14 7z"/>
<path d="M3360 3235 c0 -8 2 -15 4 -15 2 0 6 7 10 15 3 8 1 15 -4 15 -6 0 -10
-7 -10 -15z"/>
<path d="M3700 3210 c0 -33 3 -40 20 -40 17 0 20 7 20 40 0 33 -3 40 -20 40
-17 0 -20 -7 -20 -40z"/>
<path d="M4610 3230 l-25 -6 23 -8 c24 -8 37 -3 31 12 -2 4 -15 5 -29 2z"/>
<path d="M3120 3210 c0 -17 7 -20 40 -20 33 0 40 3 40 20 0 17 -7 20 -40 20
-33 0 -40 -3 -40 -20z"/>
<path d="M4660 3210 c0 -11 5 -20 10 -20 6 0 10 9 10 20 0 11 -4 20 -10 20 -5
0 -10 -9 -10 -20z"/>
<path d="M3575 3160 c3 -5 10 -10 16 -10 5 0 9 5 9 10 0 6 -7 10 -16 10 -8 0
-12 -4 -9 -10z"/>
<path d="M4520 3160 c0 -5 7 -10 15 -10 8 0 15 5 15 10 0 6 -7 10 -15 10 -8 0
-15 -4 -15 -10z"/>
<path d="M4480 3130 c0 -19 3 -21 12 -12 9 9 9 15 0 24 -9 9 -12 7 -12 -12z"/>
<path d="M4220 3130 c0 -5 5 -10 10 -10 6 0 10 5 10 10 0 6 -4 10 -10 10 -5 0
-10 -4 -10 -10z"/>
<path d="M4516 3094 c-9 -24 0 -29 19 -11 19 19 19 27 1 27 -8 0 -17 -7 -20
-16z"/>
<path d="M4160 3071 c0 -30 2 -31 40 -31 36 0 40 3 40 25 0 20 -5 25 -24 25
-13 0 -31 3 -40 6 -13 5 -16 -1 -16 -25z"/>
<path d="M4370 3075 c0 -8 7 -15 15 -15 8 0 15 7 15 15 0 8 -7 15 -15 15 -8 0
-15 -7 -15 -15z"/>
<path d="M4450 3081 c0 -5 7 -14 15 -21 13 -10 15 -9 15 9 0 12 -6 21 -15 21
-8 0 -15 -4 -15 -9z"/>
<path d="M2585 2870 c-3 -6 1 -7 9 -4 18 7 21 14 7 14 -6 0 -13 -4 -16 -10z"/>
<path d="M2490 2774 c0 -8 5 -12 10 -9 6 3 10 10 10 16 0 5 -4 9 -10 9 -5 0
-10 -7 -10 -16z"/>
<path d="M2507 2710 c3 -19 6 -43 5 -52 -1 -26 25 -11 33 19 3 14 4 28 0 31
-3 3 -5 0 -5 -7 0 -17 -20 -3 -31 23 -7 16 -7 12 -2 -14z"/>
<path d="M2650 2470 c0 -5 5 -10 11 -10 5 0 7 5 4 10 -3 6 -8 10 -11 10 -2 0
-4 -4 -4 -10z"/>
<path d="M2695 2430 c-3 -5 -1 -10 4 -10 6 0 11 5 11 10 0 6 -2 10 -4 10 -3 0
-8 -4 -11 -10z"/>
<path d="M1288 2183 c-28 -7 -21 -21 13 -28 20 -5 35 -3 42 5 9 10 7 11 -12 5
-20 -6 -23 -4 -18 9 7 16 5 17 -25 9z"/>
<path d="M1270 2110 c0 -5 7 -10 16 -10 8 0 12 5 9 10 -3 6 -10 10 -16 10 -5
0 -9 -4 -9 -10z"/>
<path d="M2612 2071 c-11 -7 -11 -9 2 -14 10 -4 16 -1 16 8 0 17 -1 17 -18 6z"/>
<path d="M2545 2000 c-3 -5 1 -10 9 -10 9 0 16 5 16 10 0 6 -4 10 -9 10 -6 0
-13 -4 -16 -10z"/>
<path d="M1370 1880 c-12 -8 -10 -10 8 -10 13 0 20 4 17 10 -7 12 -6 12 -25 0z"/>
<path d="M2957 1657 c-3 -8 -1 -20 4 -28 6 -10 9 -7 9 14 0 29 -5 35 -13 14z"/>
<path d="M1700 1638 c0 -6 -7 -19 -16 -29 -14 -15 -13 -19 12 -38 32 -25 40
-21 23 11 -7 12 -12 33 -10 46 1 12 0 22 -3 22 -3 0 -6 -5 -6 -12z"/>
<path d="M1492 1610 c-12 -12 -22 -27 -22 -35 0 -18 -21 -25 -42 -14 -9 5 -25
6 -35 2 -15 -6 -12 -8 12 -13 26 -5 30 -9 30 -38 l-1 -32 53 0 c44 0 51 3 46
16 -3 8 0 33 7 53 9 29 10 43 1 60 -14 26 -22 26 -49 1z"/>
<path d="M1578 1563 c7 -3 16 -2 19 1 4 3 -2 6 -13 5 -11 0 -14 -3 -6 -6z"/>
<path d="M1584 1327 c-11 -31 62 -157 92 -157 7 0 21 -17 31 -37 10 -20 23
-39 30 -41 19 -5 4 34 -23 59 -13 12 -24 27 -24 32 0 5 -16 31 -35 57 -19 26
-35 52 -35 57 0 5 -6 18 -14 29 -14 18 -15 18 -22 1z"/>
<path d="M2782 1238 c-1 -13 -3 -32 -5 -43 -2 -16 3 -19 24 -17 17 1 29 -3 33
-13 3 -8 10 -15 16 -15 6 0 8 5 5 10 -4 6 6 10 22 11 28 1 28 1 -5 10 -18 6
-36 18 -39 27 -7 20 -33 52 -42 52 -4 0 -8 -10 -9 -22z"/>
<path d="M2590 1214 c-11 -12 -10 -18 3 -31 21 -21 47 -9 47 22 0 29 -29 35
-50 9z"/>
<path d="M3084 1194 c3 -9 6 -22 6 -30 0 -15 27 -18 54 -8 23 9 20 24 -4 24
-11 0 -20 7 -20 15 0 9 -9 15 -21 15 -15 0 -19 -4 -15 -16z"/>
<path d="M2875 1140 c-3 -5 -1 -10 4 -10 6 0 11 5 11 10 0 6 -2 10 -4 10 -3 0
-8 -4 -11 -10z"/>
<path d="M2454 796 c-10 -8 -30 -12 -44 -10 -18 4 -29 -1 -38 -16 -13 -21 -12
-22 20 -15 49 11 108 36 108 46 0 14 -24 11 -46 -5z"/>
<path d="M2705 680 c-3 -5 -2 -10 4 -10 5 0 13 5 16 10 3 6 2 10 -4 10 -5 0
-13 -4 -16 -10z"/>
<path d="M2675 670 c3 -5 8 -10 11 -10 2 0 4 5 4 10 0 6 -5 10 -11 10 -5 0 -7
-4 -4 -10z"/>
<path d="M4860 1850 c0 -22 5 -40 10 -40 6 0 10 18 10 40 0 22 -4 40 -10 40
-5 0 -10 -18 -10 -40z"/>
<path d="M1040 1991 c0 -5 6 -14 14 -20 12 -10 13 -8 9 8 -5 21 -23 30 -23 12z"/>
<path d="M1112 1600 c-11 -30 -2 -47 18 -35 12 8 13 65 1 65 -5 0 -14 -13 -19
-30z"/>
<path d="M1133 1555 c-8 -22 6 -33 17 -15 13 20 12 30 0 30 -6 0 -13 -7 -17
-15z"/>
<path d="M2450 279 c0 -5 5 -7 10 -4 6 3 10 8 10 11 0 2 -4 4 -10 4 -5 0 -10
-5 -10 -11z"/>
<path d="M8798 6444 c6 -11 27 -32 46 -48 20 -16 36 -35 36 -42 0 -6 11 -19
25 -28 29 -19 33 -11 8 17 -17 20 -17 20 2 13 11 -4 17 -5 15 -3 -18 16 -118
94 -128 101 -11 7 -12 4 -4 -10z"/>
<path d="M8700 4360 c0 -5 5 -10 10 -10 6 0 10 5 10 10 0 6 -4 10 -10 10 -5 0
-10 -4 -10 -10z"/>
<path d="M9900 4241 c-96 -5 -135 -12 -170 -28 -84 -39 -115 -47 -172 -48 -47
0 -61 4 -84 25 -18 17 -28 21 -31 13 -3 -7 -17 -13 -33 -13 -38 0 -42 -18 -24
-97 8 -36 13 -77 10 -92 -7 -34 15 -62 51 -66 15 -1 52 -6 81 -10 48 -7 61 -5
113 20 57 28 59 28 78 11 11 -10 26 -16 34 -13 8 3 33 -3 57 -14 23 -10 57
-19 76 -19 19 0 34 -5 34 -11 0 -8 17 -10 53 -7 28 3 46 3 40 1 -7 -3 -13 -16
-13 -29 0 -21 -4 -24 -40 -24 -22 0 -40 -4 -40 -10 0 -5 -19 -11 -42 -11 -24
-1 -35 -3 -25 -6 23 -6 25 -83 2 -83 -8 0 -15 9 -15 20 0 23 -10 26 -28 8 -18
-18 -15 -28 8 -28 11 0 20 -7 20 -15 0 -11 11 -15 40 -15 29 0 40 4 40 15 0
22 7 19 40 -17 24 -26 32 -30 39 -19 7 11 12 10 22 -8 10 -15 24 -21 51 -21
38 0 38 0 38 -41 0 -39 1 -41 28 -37 l27 4 -3 -68 -4 -68 41 0 41 0 0 -60 0
-60 -40 0 -40 0 0 45 c0 33 -4 45 -15 45 -10 0 -15 -11 -15 -35 0 -22 -8 -44
-22 -61 -29 -32 -42 -75 -22 -67 9 3 14 -2 14 -17 0 -11 -4 -19 -9 -15 -5 3
-12 1 -16 -5 -3 -6 1 -13 9 -16 9 -3 16 -17 16 -30 0 -13 10 -49 21 -80 22
-59 21 -132 -2 -160 -6 -7 -9 -23 -7 -36 3 -20 17 -27 118 -55 63 -17 174 -41
245 -54 72 -12 146 -27 165 -34 156 -56 237 -34 196 51 -9 20 -14 45 -10 59 5
21 1 25 -38 35 -23 7 -58 21 -77 33 -33 20 -34 20 -47 2 -8 -11 -12 -27 -8
-37 3 -10 1 -18 -4 -18 -5 0 -12 -9 -15 -20 -4 -15 -14 -20 -36 -20 -38 0 -55
33 -45 89 10 53 29 71 65 61 24 -7 31 -6 36 8 7 20 53 72 64 72 4 0 20 5 34
10 l26 10 -40 43 c-46 47 -49 64 -26 150 8 32 15 60 15 62 0 2 -28 17 -62 33
-64 30 -104 75 -93 104 3 8 -1 28 -10 44 -8 16 -15 34 -15 41 0 6 -4 13 -9 15
-5 2 -16 27 -25 56 -14 50 -14 54 3 71 10 10 24 20 30 22 6 2 15 50 20 117 5
63 15 119 22 128 7 8 27 21 46 29 40 17 50 39 35 76 -7 16 -17 44 -24 62 -26
74 -39 95 -60 101 -33 9 -539 14 -688 7z m-130 -231 c29 -16 13 -40 -26 -40
-38 0 -41 5 -17 32 19 21 19 21 43 8z"/>
<path d="M8925 4163 c-16 -3 -34 -8 -38 -13 -13 -12 7 -43 40 -61 26 -15 31
-15 71 3 28 13 42 25 42 38 0 13 -5 17 -15 14 -8 -3 -24 1 -37 10 -12 9 -25
15 -28 15 -3 -1 -18 -4 -35 -6z"/>
<path d="M9120 4150 c0 -5 -9 -10 -20 -10 -22 0 -60 -29 -60 -46 0 -6 18 -16
40 -23 35 -10 40 -16 41 -44 1 -25 3 -27 6 -9 3 13 13 32 24 43 19 19 24 53
13 83 -7 17 -44 22 -44 6z"/>
<path d="M10073 3530 c0 -25 2 -35 4 -22 2 12 2 32 0 45 -2 12 -4 2 -4 -23z"/>
<path d="M9940 3300 c0 -5 5 -10 11 -10 5 0 7 5 4 10 -3 6 -8 10 -11 10 -2 0
-4 -4 -4 -10z"/>
<path d="M9603 2713 c-38 -35 -83 -106 -83 -133 0 -26 3 -25 48 5 20 14 40 25
45 25 4 0 21 10 37 22 47 34 40 108 -9 108 -4 0 -21 -12 -38 -27z"/>
<path d="M9460 2468 c0 -9 -6 -18 -14 -21 -22 -9 -41 -47 -23 -47 16 0 54 66
44 76 -4 4 -7 0 -7 -8z"/>
<path d="M11350 1412 c0 -19 -32 -75 -48 -85 -13 -9 -36 -53 -36 -72 0 -5 -11
-34 -23 -64 -13 -29 -23 -64 -23 -76 0 -12 -10 -37 -23 -56 -26 -39 -42 -92
-52 -169 -4 -30 -14 -67 -21 -82 -8 -15 -11 -34 -7 -43 3 -10 1 -20 -6 -24 -6
-4 -20 -49 -30 -100 -11 -51 -24 -98 -30 -104 -6 -6 -11 -26 -11 -44 0 -20 -6
-36 -14 -39 -8 -3 -17 -23 -21 -45 -4 -21 -11 -39 -16 -39 -5 0 -9 -24 -9 -53
0 -37 -8 -69 -25 -103 -14 -27 -25 -56 -25 -65 0 -9 -11 -33 -25 -53 -14 -20
-25 -50 -25 -66 l0 -30 415 0 415 0 1 43 c0 23 2 53 4 67 31 200 10 358 -54
407 -9 7 -12 13 -7 13 14 0 -26 40 -41 40 -7 0 -13 7 -13 15 0 9 -7 18 -14 21
-18 7 -41 75 -55 159 -5 33 -10 161 -11 285 -1 223 -8 280 -36 280 -7 0 -15
15 -18 34 -8 43 -21 53 -73 58 -32 2 -43 0 -43 -10z m73 -9 c-13 -2 -33 -2
-45 0 -13 2 -3 4 22 4 25 0 35 -2 23 -4z"/>
<path d="M10640 999 c0 -14 -55 -69 -69 -69 -9 0 -17 -52 -12 -82 0 -4 -17
-24 -39 -46 -22 -21 -40 -47 -40 -56 0 -10 -6 -16 -12 -13 -19 6 -50 -13 -45
-27 3 -7 -1 -13 -9 -13 -8 0 -14 4 -14 9 0 5 -5 6 -11 2 -8 -4 -7 -9 2 -14 9
-6 4 -15 -17 -33 -20 -18 -31 -22 -36 -14 -5 8 -10 4 -14 -10 -4 -13 -10 -23
-15 -23 -5 0 -9 -13 -9 -28 0 -15 -5 -33 -12 -40 -7 -7 -9 -12 -5 -12 11 0
-20 -68 -39 -87 -12 -13 -18 -13 -24 -4 -5 9 -10 10 -14 2 -4 -6 -2 -11 4 -11
6 0 8 -5 5 -10 -4 -6 -11 -7 -17 -4 -6 4 -8 2 -4 -4 3 -6 2 -13 -4 -17 -5 -3
-10 -2 -10 4 0 16 -57 -18 -74 -45 -9 -13 -21 -22 -26 -19 -8 5 -40 -88 -40
-118 0 -24 -11 -47 -20 -42 -12 7 -30 -20 -36 -52 -9 -51 -16 -65 -48 -94
l-31 -28 356 -1 356 0 6 220 c7 209 8 224 32 270 23 45 25 60 25 182 0 142
-18 338 -32 338 -4 0 -8 -5 -8 -11z"/>
<path d="M12165 634 c-22 -23 -65 -120 -65 -144 0 -5 -11 -33 -24 -62 -26 -57
-60 -96 -118 -141 -28 -20 -51 -56 -92 -142 -31 -64 -56 -122 -56 -130 0 -13
47 -15 350 -15 281 0 350 3 350 13 0 20 -21 37 -46 37 -29 0 -45 42 -59 155
-21 164 -105 390 -161 434 -35 27 -50 27 -79 -5z"/>
<path d="M10641 434 c0 -11 3 -14 6 -6 3 7 2 16 -1 19 -3 4 -6 -2 -5 -13z"/>
<path d="M9332 333 c-1 -23 -7 -43 -14 -45 -11 -4 -3 -104 19 -250 l6 -38 151
0 151 0 -27 25 c-15 14 -32 25 -37 25 -13 0 -56 43 -64 64 -4 9 -11 16 -16 16
-15 0 -61 49 -61 65 0 11 -12 15 -40 15 l-40 0 0 40 c0 22 -4 40 -9 40 -6 0
-12 19 -14 43 l-4 42 -1 -42z"/>
<path d="M1998 273 c-31 -5 -35 -18 -14 -46 12 -16 20 -17 52 -8 20 6 41 8 46
5 13 -8 10 4 -8 31 -16 25 -22 26 -76 18z"/>
<path d="M2162 23 c-19 -8 -3 -23 25 -23 21 0 24 2 13 15 -13 16 -17 17 -38 8z"/>
</g>
</svg>
